<?xml version="1.0" encoding="UTF-8" standalone="no"?>
<!DOCTYPE svg PUBLIC "-//W3C//DTD SVG 1.1//EN"
 "http://www.w3.org/Graphics/SVG/1.1/DTD/svg11.dtd">
<!-- Generated by graphviz version 2.40.1 (20161225.0304)
 -->
<!-- Title: dependencies Pages: 1 -->
<svg width="3033pt" height="360pt"
 viewBox="0.00 0.00 3033.00 360.00" xmlns="http://www.w3.org/2000/svg" xmlns:xlink="http://www.w3.org/1999/xlink">
<g id="graph0" class="graph" transform="scale(1 1) rotate(0) translate(4 356)">
<title>dependencies</title>
<polygon fill="#ffffff" stroke="transparent" points="-4,4 -4,-356 3029,-356 3029,4 -4,4"/>
<text text-anchor="start" x="1491.5091" y="-42.4" font-family="sans-serif" font-weight="bold" font-size="14.00" fill="#000000">Legend</text>
<polygon fill="#ffffb3" stroke="transparent" points="1278.5,-10 1278.5,-30 1298.5,-30 1298.5,-10 1278.5,-10"/>
<text text-anchor="start" x="1302.129" y="-15.4" font-family="sans-serif" font-size="14.00" fill="#000000"> &#160;Declarations</text>
<polygon fill="#8dd3c7" stroke="transparent" points="1391.5,-10 1391.5,-30 1411.5,-30 1411.5,-10 1391.5,-10"/>
<text text-anchor="start" x="1415.2251" y="-15.4" font-family="sans-serif" font-size="14.00" fill="#000000"> &#160;Module</text>
<polygon fill="#80b1d3" stroke="transparent" points="1477.5,-10 1477.5,-30 1497.5,-30 1497.5,-10 1477.5,-10"/>
<text text-anchor="start" x="1501.2812" y="-15.4" font-family="sans-serif" font-size="14.00" fill="#000000"> &#160;Bootstrap</text>
<polygon fill="#fdb462" stroke="transparent" points="1574.5,-10 1574.5,-30 1594.5,-30 1594.5,-10 1574.5,-10"/>
<text text-anchor="start" x="1598.1732" y="-15.4" font-family="sans-serif" font-size="14.00" fill="#000000"> &#160;Providers</text>
<polygon fill="#fb8072" stroke="transparent" points="1670.5,-10 1670.5,-30 1690.5,-30 1690.5,-10 1670.5,-10"/>
<text text-anchor="start" x="1694.2258" y="-15.4" font-family="sans-serif" font-size="14.00" fill="#000000"> &#160;Exports</text>
<g id="clust1" class="cluster">
<title>cluster_AppModule</title>
<polygon fill="none" stroke="#000000" stroke-dasharray="1,5" points="8,-146 8,-344 3017,-344 3017,-146 8,-146"/>
</g>
<g id="clust2" class="cluster">
<title>cluster_AppModule_declarations</title>
<polygon fill="none" stroke="#000000" points="1446,-154 1446,-206 3009,-206 3009,-154 1446,-154"/>
</g>
<g id="clust13" class="cluster">
<title>cluster_AppModule_imports</title>
<polygon fill="none" stroke="#000000" points="1336,-154 1336,-206 1438,-206 1438,-154 1336,-154"/>
</g>
<g id="clust15" class="cluster">
<title>cluster_AppModule_bootstrap</title>
<polygon fill="none" stroke="#000000" points="1638,-284 1638,-336 1762,-336 1762,-284 1638,-284"/>
</g>
<g id="clust16" class="cluster">
<title>cluster_AppModule_providers</title>
<polygon fill="none" stroke="#000000" points="16,-154 16,-206 1328,-206 1328,-154 16,-154"/>
</g>
<g id="clust17" class="cluster">
<title>cluster_UserModule</title>
<polygon fill="none" stroke="#000000" stroke-dasharray="1,5" points="1089,-70 1089,-138 1599,-138 1599,-70 1089,-70"/>
</g>
<g id="clust18" class="cluster">
<title>cluster_UserModule_declarations</title>
<polygon fill="none" stroke="#000000" points="1315,-78 1315,-130 1591,-130 1591,-78 1315,-78"/>
</g>
<g id="clust24" class="cluster">
<title>cluster_UserModule_providers</title>
<polygon fill="none" stroke="#000000" points="1097,-78 1097,-130 1307,-130 1307,-78 1097,-78"/>
</g>
<!-- AntwoordenComponent -->
<g id="node1" class="node">
<title>AntwoordenComponent</title>
<polygon fill="#ffffb3" stroke="#000000" points="3000.8117,-198 2849.1883,-198 2849.1883,-162 3000.8117,-162 3000.8117,-198"/>
<text text-anchor="middle" x="2925" y="-175.8" font-family="Times,serif" font-size="14.00" fill="#000000">AntwoordenComponent</text>
</g>
<!-- AppModule -->
<g id="node11" class="node">
<title>AppModule</title>
<polygon fill="#8dd3c7" stroke="#000000" points="1741.6571,-263 1738.6571,-267 1717.6571,-267 1714.6571,-263 1658.3429,-263 1658.3429,-227 1741.6571,-227 1741.6571,-263"/>
<text text-anchor="middle" x="1700" y="-240.8" font-family="Times,serif" font-size="14.00" fill="#000000">AppModule</text>
</g>
<!-- AntwoordenComponent&#45;&gt;AppModule -->
<g id="edge1" class="edge">
<title>AntwoordenComponent&#45;&gt;AppModule</title>
<path fill="none" stroke="#000000" d="M2925,-198.3228C2925,-221.6602 2925,-259 2925,-259 2925,-259 1751.8129,-259 1751.8129,-259"/>
<polygon fill="#000000" stroke="#000000" points="1751.8129,-255.5001 1741.8129,-259 1751.8129,-262.5001 1751.8129,-255.5001"/>
</g>
<!-- AppComponent -->
<g id="node2" class="node">
<title>AppComponent</title>
<polygon fill="#ffffb3" stroke="#000000" points="2831.9399,-198 2726.0601,-198 2726.0601,-162 2831.9399,-162 2831.9399,-198"/>
<text text-anchor="middle" x="2779" y="-175.8" font-family="Times,serif" font-size="14.00" fill="#000000">AppComponent</text>
</g>
<!-- AppComponent&#45;&gt;AppModule -->
<g id="edge2" class="edge">
<title>AppComponent&#45;&gt;AppModule</title>
<path fill="none" stroke="#000000" d="M2779,-198.1554C2779,-220.3519 2779,-255 2779,-255 2779,-255 1751.9669,-255 1751.9669,-255"/>
<polygon fill="#000000" stroke="#000000" points="1751.967,-251.5001 1741.9669,-255 1751.9669,-258.5001 1751.967,-251.5001"/>
</g>
<!-- CategorieComponent -->
<g id="node3" class="node">
<title>CategorieComponent</title>
<polygon fill="#ffffb3" stroke="#000000" points="2707.7548,-198 2572.2452,-198 2572.2452,-162 2707.7548,-162 2707.7548,-198"/>
<text text-anchor="middle" x="2640" y="-175.8" font-family="Times,serif" font-size="14.00" fill="#000000">CategorieComponent</text>
</g>
<!-- CategorieComponent&#45;&gt;AppModule -->
<g id="edge3" class="edge">
<title>CategorieComponent&#45;&gt;AppModule</title>
<path fill="none" stroke="#000000" d="M2640,-198.2843C2640,-219.3211 2640,-251 2640,-251 2640,-251 1751.9092,-251 1751.9092,-251"/>
<polygon fill="#000000" stroke="#000000" points="1751.9093,-247.5001 1741.9092,-251 1751.9092,-254.5001 1751.9093,-247.5001"/>
</g>
<!-- CategorieenComponent -->
<g id="node4" class="node">
<title>CategorieenComponent</title>
<polygon fill="#ffffb3" stroke="#000000" points="2554.4692,-198 2405.5308,-198 2405.5308,-162 2554.4692,-162 2554.4692,-198"/>
<text text-anchor="middle" x="2480" y="-175.8" font-family="Times,serif" font-size="14.00" fill="#000000">CategorieenComponent</text>
</g>
<!-- CategorieenComponent&#45;&gt;AppModule -->
<g id="edge4" class="edge">
<title>CategorieenComponent&#45;&gt;AppModule</title>
<path fill="none" stroke="#000000" d="M2480,-198.308C2480,-218.1455 2480,-247 2480,-247 2480,-247 1751.6604,-247 1751.6604,-247"/>
<polygon fill="#000000" stroke="#000000" points="1751.6605,-243.5001 1741.6604,-247 1751.6604,-250.5001 1751.6605,-243.5001"/>
</g>
<!-- ExposantComponent -->
<g id="node5" class="node">
<title>ExposantComponent</title>
<polygon fill="#ffffb3" stroke="#000000" points="2387.9355,-198 2254.0645,-198 2254.0645,-162 2387.9355,-162 2387.9355,-198"/>
<text text-anchor="middle" x="2321" y="-175.8" font-family="Times,serif" font-size="14.00" fill="#000000">ExposantComponent</text>
</g>
<!-- ExposantComponent&#45;&gt;AppModule -->
<g id="edge5" class="edge">
<title>ExposantComponent&#45;&gt;AppModule</title>
<path fill="none" stroke="#000000" d="M2321,-198.2222C2321,-216.8285 2321,-243 2321,-243 2321,-243 1751.7098,-243 1751.7098,-243"/>
<polygon fill="#000000" stroke="#000000" points="1751.7099,-239.5001 1741.7098,-243 1751.7098,-246.5001 1751.7099,-239.5001"/>
</g>
<!-- ExposantenComponent -->
<g id="node6" class="node">
<title>ExposantenComponent</title>
<polygon fill="#ffffb3" stroke="#000000" points="2236.1498,-198 2089.8502,-198 2089.8502,-162 2236.1498,-162 2236.1498,-198"/>
<text text-anchor="middle" x="2163" y="-175.8" font-family="Times,serif" font-size="14.00" fill="#000000">ExposantenComponent</text>
</g>
<!-- ExposantenComponent&#45;&gt;AppModule -->
<g id="edge6" class="edge">
<title>ExposantenComponent&#45;&gt;AppModule</title>
<path fill="none" stroke="#000000" d="M2163,-198.0225C2163,-215.3734 2163,-239 2163,-239 2163,-239 1751.9048,-239 1751.9048,-239"/>
<polygon fill="#000000" stroke="#000000" points="1751.9048,-235.5001 1741.9048,-239 1751.9047,-242.5001 1751.9048,-235.5001"/>
</g>
<!-- GroepComponent -->
<g id="node7" class="node">
<title>GroepComponent</title>
<polygon fill="#ffffb3" stroke="#000000" points="2072.3146,-198 1955.6854,-198 1955.6854,-162 2072.3146,-162 2072.3146,-198"/>
<text text-anchor="middle" x="2014" y="-175.8" font-family="Times,serif" font-size="14.00" fill="#000000">GroepComponent</text>
</g>
<!-- GroepComponent&#45;&gt;AppModule -->
<g id="edge7" class="edge">
<title>GroepComponent&#45;&gt;AppModule</title>
<path fill="none" stroke="#000000" d="M2014,-198.0091C2014,-214.0494 2014,-235 2014,-235 2014,-235 1751.6968,-235 1751.6968,-235"/>
<polygon fill="#000000" stroke="#000000" points="1751.6968,-231.5001 1741.6968,-235 1751.6967,-238.5001 1751.6968,-231.5001"/>
</g>
<!-- GroepenComponent -->
<g id="node8" class="node">
<title>GroepenComponent</title>
<polygon fill="#ffffb3" stroke="#000000" points="1937.5297,-198 1808.4703,-198 1808.4703,-162 1937.5297,-162 1937.5297,-198"/>
<text text-anchor="middle" x="1873" y="-175.8" font-family="Times,serif" font-size="14.00" fill="#000000">GroepenComponent</text>
</g>
<!-- GroepenComponent&#45;&gt;AppModule -->
<g id="edge8" class="edge">
<title>GroepenComponent&#45;&gt;AppModule</title>
<path fill="none" stroke="#000000" d="M1873,-198.1243C1873,-212.7832 1873,-231 1873,-231 1873,-231 1751.8785,-231 1751.8785,-231"/>
<polygon fill="#000000" stroke="#000000" points="1751.8785,-227.5001 1741.8785,-231 1751.8784,-234.5001 1751.8785,-227.5001"/>
</g>
<!-- InformatieschermComponent -->
<g id="node9" class="node">
<title>InformatieschermComponent</title>
<polygon fill="#ffffb3" stroke="#000000" points="1790.3403,-198 1609.6597,-198 1609.6597,-162 1790.3403,-162 1790.3403,-198"/>
<text text-anchor="middle" x="1700" y="-175.8" font-family="Times,serif" font-size="14.00" fill="#000000">InformatieschermComponent</text>
</g>
<!-- InformatieschermComponent&#45;&gt;AppModule -->
<g id="edge9" class="edge">
<title>InformatieschermComponent&#45;&gt;AppModule</title>
<path fill="none" stroke="#000000" d="M1700,-198.1061C1700,-198.1061 1700,-216.991 1700,-216.991"/>
<polygon fill="#000000" stroke="#000000" points="1696.5001,-216.9909 1700,-226.991 1703.5001,-216.991 1696.5001,-216.9909"/>
</g>
<!-- NavMenuComponent -->
<g id="node10" class="node">
<title>NavMenuComponent</title>
<polygon fill="#ffffb3" stroke="#000000" points="1591.8132,-198 1454.1868,-198 1454.1868,-162 1591.8132,-162 1591.8132,-198"/>
<text text-anchor="middle" x="1523" y="-175.8" font-family="Times,serif" font-size="14.00" fill="#000000">NavMenuComponent</text>
</g>
<!-- NavMenuComponent&#45;&gt;AppModule -->
<g id="edge10" class="edge">
<title>NavMenuComponent&#45;&gt;AppModule</title>
<path fill="none" stroke="#000000" d="M1523,-198.1243C1523,-212.7832 1523,-231 1523,-231 1523,-231 1648.0535,-231 1648.0535,-231"/>
<polygon fill="#000000" stroke="#000000" points="1648.0535,-234.5001 1658.0535,-231 1648.0534,-227.5001 1648.0535,-234.5001"/>
</g>
<!-- AppComponent  -->
<g id="node13" class="node">
<title>AppComponent </title>
<polygon fill="#80b1d3" stroke="#000000" points="1754.439,-328 1645.561,-328 1645.561,-292 1754.439,-292 1754.439,-328"/>
<text text-anchor="middle" x="1700" y="-305.8" font-family="Times,serif" font-size="14.00" fill="#000000">AppComponent </text>
</g>
<!-- AppModule&#45;&gt;AppComponent  -->
<g id="edge12" class="edge">
<title>AppModule&#45;&gt;AppComponent </title>
<path fill="none" stroke="#000000" stroke-dasharray="1,5" d="M1700,-263.1061C1700,-263.1061 1700,-281.991 1700,-281.991"/>
<polygon fill="#000000" stroke="#000000" points="1696.5001,-281.9909 1700,-291.991 1703.5001,-281.991 1696.5001,-281.9909"/>
</g>
<!-- UserModule -->
<g id="node12" class="node">
<title>UserModule</title>
<polygon fill="#8dd3c7" stroke="#000000" points="1429.9762,-198 1426.9762,-202 1405.9762,-202 1402.9762,-198 1344.0238,-198 1344.0238,-162 1429.9762,-162 1429.9762,-198"/>
<text text-anchor="middle" x="1387" y="-175.8" font-family="Times,serif" font-size="14.00" fill="#000000">UserModule</text>
</g>
<!-- UserModule&#45;&gt;AppModule -->
<g id="edge11" class="edge">
<title>UserModule&#45;&gt;AppModule</title>
<path fill="none" stroke="#000000" d="M1387,-198.0091C1387,-214.0494 1387,-235 1387,-235 1387,-235 1648.1122,-235 1648.1122,-235"/>
<polygon fill="#000000" stroke="#000000" points="1648.1122,-238.5001 1658.1122,-235 1648.1122,-231.5001 1648.1122,-238.5001"/>
</g>
<!-- AntwoordenDataService -->
<g id="node14" class="node">
<title>AntwoordenDataService</title>
<ellipse fill="#fdb462" stroke="#000000" cx="1214" cy="-180" rx="106.4812" ry="18"/>
<text text-anchor="middle" x="1214" y="-175.8" font-family="Times,serif" font-size="14.00" fill="#000000">AntwoordenDataService</text>
</g>
<!-- AntwoordenDataService&#45;&gt;AppModule -->
<g id="edge13" class="edge">
<title>AntwoordenDataService&#45;&gt;AppModule</title>
<path fill="none" stroke="#000000" d="M1214,-198.0225C1214,-215.3734 1214,-239 1214,-239 1214,-239 1648.1433,-239 1648.1433,-239"/>
<polygon fill="#000000" stroke="#000000" points="1648.1433,-242.5001 1658.1433,-239 1648.1432,-235.5001 1648.1433,-242.5001"/>
</g>
<!-- CategorieShareService -->
<g id="node15" class="node">
<title>CategorieShareService</title>
<ellipse fill="#fdb462" stroke="#000000" cx="990" cy="-180" rx="99.5327" ry="18"/>
<text text-anchor="middle" x="990" y="-175.8" font-family="Times,serif" font-size="14.00" fill="#000000">CategorieShareService</text>
</g>
<!-- CategorieShareService&#45;&gt;AppModule -->
<g id="edge14" class="edge">
<title>CategorieShareService&#45;&gt;AppModule</title>
<path fill="none" stroke="#000000" d="M990,-198.2222C990,-216.8285 990,-243 990,-243 990,-243 1648.237,-243 1648.237,-243"/>
<polygon fill="#000000" stroke="#000000" points="1648.237,-246.5001 1658.237,-243 1648.2369,-239.5001 1648.237,-246.5001"/>
</g>
<!-- CategorieenDataService -->
<g id="node16" class="node">
<title>CategorieenDataService</title>
<ellipse fill="#fdb462" stroke="#000000" cx="768" cy="-180" rx="104.7501" ry="18"/>
<text text-anchor="middle" x="768" y="-175.8" font-family="Times,serif" font-size="14.00" fill="#000000">CategorieenDataService</text>
</g>
<!-- CategorieenDataService&#45;&gt;AppModule -->
<g id="edge15" class="edge">
<title>CategorieenDataService&#45;&gt;AppModule</title>
<path fill="none" stroke="#000000" d="M768,-198.308C768,-218.1455 768,-247 768,-247 768,-247 1648.1433,-247 1648.1433,-247"/>
<polygon fill="#000000" stroke="#000000" points="1648.1433,-250.5001 1658.1433,-247 1648.1433,-243.5001 1648.1433,-250.5001"/>
</g>
<!-- ExposantShareService -->
<g id="node17" class="node">
<title>ExposantShareService</title>
<ellipse fill="#fdb462" stroke="#000000" cx="547" cy="-180" rx="97.8324" ry="18"/>
<text text-anchor="middle" x="547" y="-175.8" font-family="Times,serif" font-size="14.00" fill="#000000">ExposantShareService</text>
</g>
<!-- ExposantShareService&#45;&gt;AppModule -->
<g id="edge16" class="edge">
<title>ExposantShareService&#45;&gt;AppModule</title>
<path fill="none" stroke="#000000" d="M547,-198.2843C547,-219.3211 547,-251 547,-251 547,-251 1648.283,-251 1648.283,-251"/>
<polygon fill="#000000" stroke="#000000" points="1648.283,-254.5001 1658.283,-251 1648.2829,-247.5001 1648.283,-254.5001"/>
</g>
<!-- ExposantenDataService -->
<g id="node18" class="node">
<title>ExposantenDataService</title>
<ellipse fill="#fdb462" stroke="#000000" cx="328" cy="-180" rx="103.0501" ry="18"/>
<text text-anchor="middle" x="328" y="-175.8" font-family="Times,serif" font-size="14.00" fill="#000000">ExposantenDataService</text>
</g>
<!-- ExposantenDataService&#45;&gt;AppModule -->
<g id="edge17" class="edge">
<title>ExposantenDataService&#45;&gt;AppModule</title>
<path fill="none" stroke="#000000" d="M328,-198.1554C328,-220.3519 328,-255 328,-255 328,-255 1648.1896,-255 1648.1896,-255"/>
<polygon fill="#000000" stroke="#000000" points="1648.1897,-258.5001 1658.1896,-255 1648.1896,-251.5001 1648.1897,-258.5001"/>
</g>
<!-- GroepenDataService -->
<g id="node19" class="node">
<title>GroepenDataService</title>
<ellipse fill="#fdb462" stroke="#000000" cx="115" cy="-180" rx="91.4307" ry="18"/>
<text text-anchor="middle" x="115" y="-175.8" font-family="Times,serif" font-size="14.00" fill="#000000">GroepenDataService</text>
</g>
<!-- GroepenDataService&#45;&gt;AppModule -->
<g id="edge18" class="edge">
<title>GroepenDataService&#45;&gt;AppModule</title>
<path fill="none" stroke="#000000" d="M115,-198.3228C115,-221.6602 115,-259 115,-259 115,-259 1648.0134,-259 1648.0134,-259"/>
<polygon fill="#000000" stroke="#000000" points="1648.0134,-262.5001 1658.0134,-259 1648.0133,-255.5001 1648.0134,-262.5001"/>
</g>
<!-- LoginComponent -->
<g id="node20" class="node">
<title>LoginComponent</title>
<polygon fill="#ffffb3" stroke="#000000" points="1583.2758,-122 1468.7242,-122 1468.7242,-86 1583.2758,-86 1583.2758,-122"/>
<text text-anchor="middle" x="1526" y="-99.8" font-family="Times,serif" font-size="14.00" fill="#000000">LoginComponent</text>
</g>
<!-- LoginComponent&#45;&gt;UserModule -->
<g id="edge19" class="edge">
<title>LoginComponent&#45;&gt;UserModule</title>
<path fill="none" stroke="#000000" d="M1526,-122.0439C1526,-134.5633 1526,-149 1526,-149 1526,-149 1408.4941,-149 1408.4941,-149 1408.4941,-149 1408.4941,-151.9672 1408.4941,-151.9672"/>
<polygon fill="#000000" stroke="#000000" points="1404.9941,-151.9671 1408.4941,-161.9672 1411.9941,-151.9672 1404.9941,-151.9671"/>
</g>
<!-- RegisterComponent -->
<g id="node21" class="node">
<title>RegisterComponent</title>
<polygon fill="#ffffb3" stroke="#000000" points="1450.9846,-122 1323.0154,-122 1323.0154,-86 1450.9846,-86 1450.9846,-122"/>
<text text-anchor="middle" x="1387" y="-99.8" font-family="Times,serif" font-size="14.00" fill="#000000">RegisterComponent</text>
</g>
<!-- RegisterComponent&#45;&gt;UserModule -->
<g id="edge20" class="edge">
<title>RegisterComponent&#45;&gt;UserModule</title>
<path fill="none" stroke="#000000" d="M1387,-122.0109C1387,-122.0109 1387,-151.855 1387,-151.855"/>
<polygon fill="#000000" stroke="#000000" points="1383.5001,-151.8549 1387,-161.855 1390.5001,-151.855 1383.5001,-151.8549"/>
</g>
<!-- AuthenticationService -->
<g id="node22" class="node">
<title>AuthenticationService</title>
<ellipse fill="#fdb462" stroke="#000000" cx="1202" cy="-104" rx="97.2683" ry="18"/>
<text text-anchor="middle" x="1202" y="-99.8" font-family="Times,serif" font-size="14.00" fill="#000000">AuthenticationService</text>
</g>
<!-- AuthenticationService&#45;&gt;UserModule -->
<g id="edge21" class="edge">
<title>AuthenticationService&#45;&gt;UserModule</title>
<path fill="none" stroke="#000000" d="M1203.4468,-122.2434C1203.4468,-129.4297 1203.4468,-136 1203.4468,-136 1203.4468,-136 1365.506,-136 1365.506,-136 1365.506,-136 1365.506,-151.8495 1365.506,-151.8495"/>
<polygon fill="#000000" stroke="#000000" points="1362.006,-151.8494 1365.506,-161.8495 1369.006,-151.8495 1362.006,-151.8494"/>
</g>
</g>
</svg>
